<svg width="100" height="100" viewBox="0 0 100 100" fill="none" xmlns="http://www.w3.org/2000/svg">
<circle cx="50" cy="50" r="50" fill="#CCFF00"/>
<path d="M42.4997 60.5L33.7497 51.75C33.5208 51.5184 33.2483 51.3345 32.9479 51.209C32.6475 51.0835 32.3252 51.0189 31.9997 51.0189C31.6741 51.0189 31.3518 51.0835 31.0514 51.209C30.751 51.3345 30.4785 51.5184 30.2497 51.75C30.0181 51.9788 29.8342 52.2513 29.7087 52.5517C29.5832 52.8521 29.5186 53.1745 29.5186 53.5C29.5186 53.8256 29.5832 54.1479 29.7087 54.4483C29.8342 54.7487 30.0181 55.0212 30.2497 55.25L40.7247 65.725C41.6997 66.7 43.2747 66.7 44.2497 65.725L70.7497 39.25C70.9813 39.0212 71.1651 38.7487 71.2906 38.4483C71.4161 38.1479 71.4808 37.8256 71.4808 37.5C71.4808 37.1745 71.4161 36.8521 71.2906 36.5517C71.1651 36.2513 70.9813 35.9788 70.7497 35.75C70.5208 35.5184 70.2483 35.3345 69.9479 35.209C69.6475 35.0835 69.3252 35.0189 68.9997 35.0189C68.6741 35.0189 68.3518 35.0835 68.0514 35.209C67.751 35.3345 67.4785 35.5184 67.2497 35.75L42.4997 60.5Z" fill="#0E1618"/>
</svg>
