<svg width="23" height="18" viewBox="0 0 23 18" fill="none" xmlns="http://www.w3.org/2000/svg">
<path fill-rule="evenodd" clip-rule="evenodd" d="M1.25 2.50306H11.4625C11.7208 1.77115 12.1997 1.13736 12.8333 0.68905C13.4668 0.240745 14.2239 0 15 0C15.7761 0 16.5332 0.240745 17.1667 0.68905C17.8003 1.13736 18.2792 1.77115 18.5375 2.50306H21.25C21.5815 2.50306 21.8995 2.63476 22.1339 2.86918C22.3683 3.1036 22.5 3.42154 22.5 3.75306C22.5 4.08458 22.3683 4.40253 22.1339 4.63695C21.8995 4.87137 21.5815 5.00306 21.25 5.00306H18.5375C18.2792 5.73498 17.8003 6.36877 17.1667 6.81708C16.5332 7.26538 15.7761 7.50613 15 7.50613C14.2239 7.50613 13.4668 7.26538 12.8333 6.81708C12.1997 6.36877 11.7208 5.73498 11.4625 5.00306H1.25C0.918479 5.00306 0.600537 4.87137 0.366116 4.63695C0.131696 4.40253 0 4.08458 0 3.75306C0 3.42154 0.131696 3.1036 0.366116 2.86918C0.600537 2.63476 0.918479 2.50306 1.25 2.50306ZM1.25 12.5031H3.9625C4.22075 11.7711 4.69967 11.1374 5.33325 10.689C5.96683 10.2407 6.72386 10 7.5 10C8.27614 10 9.03317 10.2407 9.66675 10.689C10.3003 11.1374 10.7792 11.7711 11.0375 12.5031H21.25C21.5815 12.5031 21.8995 12.6348 22.1339 12.8692C22.3683 13.1036 22.5 13.4215 22.5 13.7531C22.5 14.0846 22.3683 14.4025 22.1339 14.6369C21.8995 14.8714 21.5815 15.0031 21.25 15.0031H11.0375C10.7792 15.735 10.3003 16.3688 9.66675 16.8171C9.03317 17.2654 8.27614 17.5061 7.5 17.5061C6.72386 17.5061 5.96683 17.2654 5.33325 16.8171C4.69967 16.3688 4.22075 15.735 3.9625 15.0031H1.25C0.918479 15.0031 0.600537 14.8714 0.366116 14.6369C0.131696 14.4025 0 14.0846 0 13.7531C0 13.4215 0.131696 13.1036 0.366116 12.8692C0.600537 12.6348 0.918479 12.5031 1.25 12.5031Z" fill="#9DA5A4"/>
</svg>
