<svg width="100" height="104" viewBox="0 0 100 104" fill="none" xmlns="http://www.w3.org/2000/svg">
<path d="M96.7375 54.2251C98.8375 51.4501 100 48.0501 100 44.5126C100 38.9001 96.8625 33.5876 91.8125 30.6251C90.5124 29.8625 89.0322 29.4612 87.525 29.4626H57.55L58.3 14.1001C58.475 10.3876 57.1625 6.86259 54.6125 4.17509C53.3611 2.85044 51.8513 1.79651 50.1764 1.07841C48.5016 0.360311 46.6973 -0.00668767 44.875 9.2252e-05C38.375 9.2252e-05 32.625 4.37509 30.9 10.6376L20.1625 49.5126H4C1.7875 49.5126 0 51.3001 0 53.5126V99.0126C0 101.225 1.7875 103.013 4 103.013H79.1625C80.3125 103.013 81.4375 102.788 82.475 102.338C88.425 99.8001 92.2625 93.9876 92.2625 87.5376C92.2625 85.9626 92.0375 84.4126 91.5875 82.9126C93.6875 80.1376 94.85 76.7376 94.85 73.2001C94.85 71.6251 94.625 70.0751 94.175 68.5751C96.275 65.8001 97.4375 62.4001 97.4375 58.8626C97.4125 57.2876 97.1875 55.7251 96.7375 54.2251ZM9 94.0126V58.5126H19.125V94.0126H9ZM88.55 49.8876L85.8125 52.2626L87.55 55.4376C88.1224 56.4835 88.4192 57.6578 88.4125 58.8501C88.4125 60.9126 87.5125 62.8751 85.9625 64.2251L83.225 66.6001L84.9625 69.7751C85.5349 70.821 85.8317 71.9953 85.825 73.1876C85.825 75.2501 84.925 77.2126 83.375 78.5626L80.6375 80.9376L82.375 84.1126C82.9474 85.1585 83.2442 86.3328 83.2375 87.5251C83.2375 90.3251 81.5875 92.8501 79.0375 94.0001H27.125V58.1126L39.5625 13.0501C39.8832 11.8951 40.5717 10.8761 41.5235 10.1475C42.4754 9.41898 43.6388 9.02054 44.8375 9.01259C45.7875 9.01259 46.725 9.28759 47.475 9.85009C48.7125 10.7751 49.375 12.1751 49.3 13.6626L48.1 38.4626H87.4C89.625 39.8251 91 42.1251 91 44.5126C91 46.5751 90.1 48.5251 88.55 49.8876Z" fill="black"/>
</svg>
