<svg width="85" height="100" viewBox="0 0 85 100" fill="none" xmlns="http://www.w3.org/2000/svg">
<path d="M10.5263 57.8947C10.5263 62.4561 11.4474 66.7772 13.2895 70.8579C15.1316 74.9386 17.7632 78.5123 21.1842 81.5789C21.0965 81.1404 21.0526 80.7456 21.0526 80.3947V79.2105C21.0526 76.4035 21.5789 73.7719 22.6316 71.3158C23.6842 68.8596 25.2193 66.6228 27.2368 64.6053L42.1053 50L56.9737 64.6053C58.9912 66.6228 60.5263 68.8596 61.5789 71.3158C62.6316 73.7719 63.1579 76.4035 63.1579 79.2105V80.3947C63.1579 80.7456 63.114 81.1404 63.0263 81.5789C66.4474 78.5088 69.0789 74.9333 70.9211 70.8526C72.7632 66.7719 73.6842 62.4526 73.6842 57.8947C73.6842 53.5088 72.8719 49.3632 71.2474 45.4579C69.6228 41.5526 67.2772 38.0667 64.2105 35C62.4561 36.1403 60.614 36.9965 58.6842 37.5684C56.7544 38.1403 54.7807 38.4246 52.7632 38.4211C47.3246 38.4211 42.6088 36.6228 38.6158 33.0263C34.6228 29.4298 32.3211 25 31.7105 19.7368C28.2895 22.6316 25.2632 25.6368 22.6316 28.7526C20 31.8684 17.7842 35.0263 15.9842 38.2263C14.1877 41.4263 12.8298 44.693 11.9105 48.0263C10.9912 51.3596 10.5298 54.6491 10.5263 57.8947ZM42.1053 64.7368L34.6053 72.1053C33.6403 73.0702 32.8947 74.1667 32.3684 75.3947C31.8421 76.6228 31.5789 77.8947 31.5789 79.2105C31.5789 82.0175 32.6088 84.4298 34.6684 86.4474C36.7281 88.4649 39.207 89.4737 42.1053 89.4737C45 89.4737 47.4772 88.4649 49.5368 86.4474C51.5965 84.4298 52.6281 82.0175 52.6316 79.2105C52.6316 77.807 52.3684 76.5123 51.8421 75.3263C51.3158 74.1404 50.5702 73.0667 49.6053 72.1053L42.1053 64.7368ZM42.1053 0V17.3684C42.1053 20.3509 43.1368 22.8509 45.2 24.8684C47.2632 26.886 49.7842 27.8947 52.7632 27.8947C54.3421 27.8947 55.8123 27.5649 57.1737 26.9053C58.5351 26.2456 59.7404 25.2596 60.7895 23.9474L63.1579 21.0526C69.6491 24.7368 74.7807 29.8684 78.5526 36.4474C82.3246 43.0263 84.2105 50.1754 84.2105 57.8947C84.2105 69.6491 80.1316 79.6053 71.9737 87.7632C63.8158 95.921 53.8596 100 42.1053 100C30.3509 100 20.3947 95.921 12.2368 87.7632C4.07895 79.6053 0 69.6491 0 57.8947C0 46.5789 3.79298 35.8333 11.3789 25.6579C18.9649 15.4825 29.207 6.92982 42.1053 0Z" fill="black"/>
</svg>
