<svg width="104" height="104" viewBox="0 0 104 104" fill="none" xmlns="http://www.w3.org/2000/svg">
<path d="M52 63.5385V102M32.7692 102H71.2308M25.0769 40.4616C18.9565 40.4616 13.0868 38.0303 8.75907 33.7025C4.43131 29.3748 2 23.5051 2 17.3847V9.69238H28.9231V40.4616H25.0769ZM78.9231 40.4616C85.0435 40.4616 90.9132 38.0303 95.2409 33.7025C99.5687 29.3748 102 23.5051 102 17.3847V9.69238H75.0769V40.4616H78.9231Z" stroke="black" stroke-width="3" stroke-linecap="round" stroke-linejoin="round"/>
<path d="M75.0767 40.4615C75.0767 46.5819 72.6454 52.4516 68.3176 56.7794C63.9899 61.1072 58.1202 63.5385 51.9998 63.5385C45.8794 63.5385 40.0097 61.1072 35.6819 56.7794C31.3542 52.4516 28.9229 46.5819 28.9229 40.4615V2H75.0767V40.4615Z" stroke="black" stroke-width="3" stroke-linecap="round" stroke-linejoin="round"/>
</svg>
