<svg width="50" height="50" viewBox="0 0 50 50" fill="none" xmlns="http://www.w3.org/2000/svg">
<path d="M31.6019 4.76175C31.4398 3.45225 30.7489 2.24263 29.6613 1.36417C28.5737 0.485716 27.1657 3.98097e-05 25.7066 0H16.4786C15.0194 3.98097e-05 13.6114 0.485716 12.5238 1.36417C11.4362 2.24263 10.7453 3.45225 10.5832 4.76175H5.93228C4.35894 4.76175 2.85005 5.32615 1.73753 6.33078C0.625007 7.3354 0 8.69797 0 10.1187V42.2606C0 43.6813 0.625007 45.0439 1.73753 46.0485C2.85005 47.0531 4.35894 47.6175 5.93228 47.6175H18.4586C18.4398 47.1422 18.4957 46.6668 18.6247 46.2057L19.2232 44.0462H5.93228C5.40784 44.0462 4.90487 43.8581 4.53403 43.5232C4.16319 43.1883 3.95486 42.7342 3.95486 42.2606V10.1187C3.95486 9.64514 4.16319 9.19095 4.53403 8.85608C4.90487 8.5212 5.40784 8.33307 5.93228 8.33307H11.5455C12.6107 9.76874 14.422 10.7139 16.4786 10.7139H25.7066C27.7631 10.7139 29.5744 9.76874 30.6396 8.33307H36.2528C36.7773 8.33307 37.2803 8.5212 37.6511 8.85608C38.0219 9.19095 38.2303 9.64514 38.2303 10.1187V23.4754C39.3825 22.5231 40.7508 21.9041 42.1851 21.616V10.1187C42.1851 9.41524 42.0317 8.71864 41.7336 8.0687C41.4354 7.41877 40.9985 6.82822 40.4476 6.33078C39.8967 5.83334 39.2428 5.43874 38.523 5.16953C37.8033 4.90032 37.0319 4.76175 36.2528 4.76175H31.6019ZM31.6257 4.99032L31.6389 5.35697C31.6389 5.23317 31.6336 5.11174 31.6257 4.99032ZM16.4786 3.57132H25.7066C26.231 3.57132 26.734 3.75945 27.1048 4.09432C27.4757 4.4292 27.684 4.88339 27.684 5.35697C27.684 5.83056 27.4757 6.28475 27.1048 6.61962C26.734 6.9545 26.231 7.14263 25.7066 7.14263H16.4786C15.9541 7.14263 15.4512 6.9545 15.0803 6.61962C14.7095 6.28475 14.5011 5.83056 14.5011 5.35697C14.5011 4.88339 14.7095 4.4292 15.0803 4.09432C15.4512 3.75945 15.9541 3.57132 16.4786 3.57132ZM24.6678 35.7132H10.5463C10.0218 35.7132 9.51887 35.9013 9.14803 36.2362C8.77719 36.571 8.56886 37.0252 8.56886 37.4988C8.56886 37.9724 8.77719 38.4266 9.14803 38.7615C9.51887 39.0963 10.0218 39.2845 10.5463 39.2845H21.0477C21.43 38.7393 21.8783 38.2321 22.3871 37.7726L24.6678 35.7132ZM21.0926 29.761H10.5463C10.0218 29.761 9.51887 29.5728 9.14803 29.238C8.77719 28.9031 8.56886 28.4489 8.56886 27.9753C8.56886 27.5017 8.77719 27.0475 9.14803 26.7127C9.51887 26.3778 10.0218 26.1896 10.5463 26.1896H21.0926C21.617 26.1896 22.12 26.3778 22.4908 26.7127C22.8617 27.0475 23.07 27.5017 23.07 27.9753C23.07 28.4489 22.8617 28.9031 22.4908 29.238C22.12 29.5728 21.617 29.761 21.0926 29.761ZM31.6389 20.2375H10.5463C10.0218 20.2375 9.51887 20.0493 9.14803 19.7144C8.77719 19.3796 8.56886 18.9254 8.56886 18.4518C8.56886 17.9782 8.77719 17.524 9.14803 17.1891C9.51887 16.8543 10.0218 16.6661 10.5463 16.6661H31.6389C32.1633 16.6661 32.6663 16.8543 33.0371 17.1891C33.4079 17.524 33.6163 17.9782 33.6163 18.4518C33.6163 18.9254 33.4079 19.3796 33.0371 19.7144C32.6663 20.0493 32.1633 20.2375 31.6389 20.2375ZM39.8122 25.404L24.2485 39.4559C23.3418 40.2751 22.6984 41.3012 22.3871 42.4249L21.1796 46.7842C21.0595 47.218 21.0659 47.6724 21.1981 48.1033C21.3304 48.5341 21.584 48.9267 21.9342 49.2427C22.2844 49.5587 22.7193 49.7874 23.1965 49.9065C23.6737 50.0256 24.177 50.031 24.6572 49.9222L29.4821 48.8342C30.7277 48.5529 31.8651 47.9711 32.7726 47.1509L48.3336 33.099C49.4201 32.0706 50.0181 30.6992 49.9996 29.2779C49.9811 27.8567 49.3477 26.4984 48.2347 25.4933C47.1217 24.4883 45.6175 23.9163 44.0436 23.8996C42.4697 23.8829 40.951 24.4228 39.8122 25.404Z" fill="#0E1618"/>
</svg>
