<svg width="47" height="50" viewBox="0 0 47 50" fill="none" xmlns="http://www.w3.org/2000/svg">
<path d="M20.1862 2.17931C21.2401 1.33504 22.5501 0.875 23.9005 0.875C25.2509 0.875 26.5609 1.33504 27.6148 2.17931L45.4477 16.4456C46.8574 17.5733 47.6794 19.2819 47.6794 21.089V44.9307C47.6794 46.5072 47.0531 48.0192 45.9383 49.134C44.8236 50.2487 43.3116 50.875 41.7351 50.875H29.8465C29.1708 50.875 28.5229 50.6066 28.0451 50.1288C27.5673 49.6511 27.2989 49.0031 27.2989 48.3274V30.4945H20.5055V48.3274C20.5055 49.0031 20.237 49.6511 19.7593 50.1288C19.2815 50.6066 18.6335 50.875 17.9579 50.875H6.0693C4.49277 50.875 2.98082 50.2487 1.86604 49.134C0.751272 48.0192 0.125 46.5072 0.125 44.9307V21.0856C0.125 19.2819 0.947011 17.5733 2.35666 16.4456L20.1862 2.17931ZM24.4321 6.15689C24.2816 6.03673 24.0948 5.97128 23.9022 5.97128C23.7096 5.97128 23.5228 6.03673 23.3723 6.15689L5.53941 20.4232C5.4395 20.503 5.3589 20.6043 5.30361 20.7196C5.24833 20.8348 5.21978 20.9611 5.22011 21.089V44.9307C5.22011 45.3995 5.60055 45.7799 6.0693 45.7799H15.4103V27.947C15.4103 27.2713 15.6787 26.6234 16.1565 26.1456C16.6343 25.6678 17.2822 25.3994 17.9579 25.3994H29.8465C30.5221 25.3994 31.1701 25.6678 31.6479 26.1456C32.1256 26.6234 32.394 27.2713 32.394 27.947V45.7799H41.7351C41.9603 45.7799 42.1763 45.6904 42.3356 45.5312C42.4948 45.3719 42.5843 45.1559 42.5843 44.9307V21.0856C42.5841 20.9583 42.5553 20.8327 42.5 20.718C42.4448 20.6034 42.3644 20.5026 42.265 20.4232L24.4321 6.15689Z" fill="#0E1618"/>
</svg>
