<svg width="48" height="54" viewBox="0 0 48 54" fill="none" xmlns="http://www.w3.org/2000/svg">
<path d="M2 45.75C2 42.4348 3.17063 39.2554 5.25437 36.9112C7.33811 34.567 10.1643 33.25 13.1111 33.25H35.3333C38.2802 33.25 41.1063 34.567 43.1901 36.9112C45.2738 39.2554 46.4444 42.4348 46.4444 45.75C46.4444 47.4076 45.8591 48.9973 44.8173 50.1694C43.7754 51.3415 42.3623 52 40.8889 52H7.55556C6.08213 52 4.66905 51.3415 3.62718 50.1694C2.58532 48.9973 2 47.4076 2 45.75Z" stroke="#0E1618" stroke-width="2.5" stroke-linejoin="round"/>
<path d="M24.2222 20.75C28.8246 20.75 32.5555 16.5527 32.5555 11.375C32.5555 6.19733 28.8246 2 24.2222 2C19.6198 2 15.8889 6.19733 15.8889 11.375C15.8889 16.5527 19.6198 20.75 24.2222 20.75Z" stroke="#0E1618" stroke-width="2.5"/>
</svg>
