<svg width="54" height="54" viewBox="0 0 54 54" fill="none" xmlns="http://www.w3.org/2000/svg">
<path d="M26.9997 37.0002C12.5999 37.0002 10.0499 22.6503 9.59991 11.2655C9.47241 8.10052 9.40991 6.51553 10.5999 5.05305C11.7874 3.58807 13.2099 3.34807 16.0573 2.86808C19.6743 2.27528 23.3345 1.98511 26.9997 2.00059C31.4597 2.00059 35.1321 2.39308 37.9421 2.86808C40.7895 3.34807 42.212 3.58807 43.402 5.05305C44.592 6.51803 44.527 8.10052 44.402 11.2655C43.952 22.6478 41.402 37.0002 27.0022 37.0002H26.9997Z" stroke="#0E1618" stroke-width="2.5"/>
<path d="M26.9997 37.0002V44.5002" stroke="#0E1618" stroke-width="2.5" stroke-linecap="round"/>
<path d="M35.7496 51.9999H18.2498L19.0998 47.76C19.213 47.1935 19.519 46.6836 19.9656 46.3172C20.4123 45.9508 20.972 45.7503 21.5498 45.75H32.4496C33.0274 45.7503 33.5871 45.9508 34.0338 46.3172C34.4804 46.6836 34.7864 47.1935 34.8996 47.76L35.7496 51.9999Z" stroke="#0E1618" stroke-width="2.5" stroke-linecap="round" stroke-linejoin="round"/>
<path d="M44.4995 9.50061L46.872 10.2906C49.3469 11.1156 50.5844 11.5281 51.2919 12.5106C51.9994 13.4931 51.9994 14.798 51.9994 17.4055V17.588C51.9994 19.738 51.9994 20.8155 51.4819 21.6955C50.9644 22.5755 50.0219 23.0979 48.142 24.1454L40.7495 28.2504M9.49991 9.50061L7.12744 10.2906C4.65247 11.1156 3.41498 11.5281 2.70749 12.5106C2 13.4931 2 14.8005 2 17.4055V17.588C2 19.738 2 20.8155 2.51749 21.6955C3.03499 22.5755 3.97748 23.0979 5.85745 24.1454L13.2499 28.2504M24.8647 12.0581C25.8147 10.3506 26.2897 9.50061 26.9997 9.50061C27.7097 9.50061 28.1847 10.3506 29.1347 12.0581L29.3797 12.4981C29.6497 12.9831 29.7847 13.2231 29.9947 13.3831C30.2072 13.5431 30.4697 13.6031 30.9947 13.7206L31.4697 13.8306C33.3146 14.2481 34.2371 14.4556 34.4571 15.1605C34.6771 15.868 34.0471 16.603 32.7896 18.073L32.4646 18.453C32.1071 18.8705 31.9271 19.078 31.8471 19.338C31.7671 19.598 31.7946 19.8755 31.8471 20.433L31.8971 20.9405C32.0871 22.903 32.1821 23.8854 31.6096 24.3204C31.0347 24.7554 30.1697 24.3579 28.4422 23.5629L27.9972 23.3579C27.5047 23.1329 27.2597 23.0205 26.9997 23.0205C26.7397 23.0205 26.4947 23.1329 26.0022 23.3579L25.5572 23.5629C23.8297 24.3604 22.9648 24.7554 22.3898 24.3204C21.8148 23.8854 21.9123 22.903 22.1023 20.9405L22.1523 20.433C22.2048 19.8755 22.2323 19.598 22.1523 19.338C22.0723 19.0805 21.8923 18.8705 21.5348 18.453L21.2098 18.073C19.9523 16.603 19.3223 15.868 19.5423 15.1605C19.7623 14.4556 20.6848 14.2481 22.5298 13.8306L23.0048 13.7206C23.5297 13.6031 23.7922 13.5456 24.0047 13.3831C24.2147 13.2231 24.3497 12.9831 24.6197 12.4981L24.8647 12.0581Z" stroke="#0E1618" stroke-width="2.5"/>
<path d="M41.9995 52H11.9999" stroke="#0E1618"  stroke-width="2.5" stroke-linecap="round"/>
</svg>
