<svg width="50" height="50" viewBox="0 0 50 50" fill="none" xmlns="http://www.w3.org/2000/svg">
<path d="M28.5714 42.8571V7.14286C28.5714 5.17858 29.2714 3.49643 30.6714 2.09643C32.0714 0.696434 33.7524 -0.00237489 35.7143 6.06355e-06H42.8571C44.8214 6.06355e-06 46.5036 0.700005 47.9036 2.1C49.3036 3.5 50.0024 5.18096 50 7.14286V42.8571C50 44.8214 49.3 46.5036 47.9 47.9036C46.5 49.3036 44.819 50.0024 42.8571 50H35.7143C33.75 50 32.0679 49.3 30.6679 47.9C29.2679 46.5 28.569 44.819 28.5714 42.8571ZM6.06355e-06 42.8571V7.14286C6.06355e-06 5.17858 0.700005 3.49643 2.1 2.09643C3.5 0.696434 5.18096 -0.00237489 7.14286 6.06355e-06H14.2857C16.25 6.06355e-06 17.9321 0.700005 19.3321 2.1C20.7321 3.5 21.431 5.18096 21.4286 7.14286V42.8571C21.4286 44.8214 20.7286 46.5036 19.3286 47.9036C17.9286 49.3036 16.2476 50.0024 14.2857 50H7.14286C5.17858 50 3.49643 49.3 2.09643 47.9C0.696434 46.5 -0.00237489 44.819 6.06355e-06 42.8571ZM35.7143 42.8571H42.8571V7.14286H35.7143V42.8571ZM7.14286 42.8571H14.2857V7.14286H7.14286V42.8571Z" fill="black"/>
</svg>
