<svg width="49" height="58" viewBox="0 0 49 58" fill="none" xmlns="http://www.w3.org/2000/svg">
<path d="M41.7274 27.0682L7.46606 6.10229C7.11986 5.8887 6.72269 5.77195 6.31599 5.76421C5.90928 5.75646 5.50795 5.85802 5.15388 6.05827C4.79981 6.25853 4.50597 6.55014 4.30303 6.90268C4.1001 7.25522 3.9955 7.65576 4.00015 8.06252V49.9375C3.9955 50.3443 4.1001 50.7448 4.30303 51.0974C4.50597 51.4499 4.79981 51.7415 5.15388 51.9418C5.50795 52.142 5.90928 52.2436 6.31599 52.2358C6.72269 52.2281 7.11986 52.1113 7.46606 51.8977L41.7274 30.9318C42.0563 30.728 42.3277 30.4436 42.5159 30.1055C42.7041 29.7675 42.8029 29.3869 42.8029 29C42.8029 28.6131 42.7041 28.2326 42.5159 27.8945C42.3277 27.5564 42.0563 27.272 41.7274 27.0682Z" stroke="black" stroke-width="8" stroke-linecap="round" stroke-linejoin="round"/>
<path d="M44.9093 4V54" stroke="black" stroke-width="8" stroke-linecap="round" stroke-linejoin="round"/>
</svg>
