<svg width="50" height="50" viewBox="0 0 50 50" fill="none" xmlns="http://www.w3.org/2000/svg">
<path d="M25 50C35.3562 50 43.75 43.75 43.75 32.8125C43.75 28.125 42.1875 20.3125 35.9375 14.0625C36.7188 18.75 32.0312 20.3125 32.0312 20.3125C34.375 12.5 28.125 1.5625 18.75 0C19.8656 6.25 20.3125 12.5 12.5 18.75C8.59375 21.875 6.25 27.2781 6.25 32.8125C6.25 43.75 14.6438 50 25 50ZM25 46.875C19.8219 46.875 15.625 43.75 15.625 38.2812C15.625 35.9375 16.4062 32.0312 19.5312 28.9062C19.1406 31.25 21.875 32.8125 21.875 32.8125C20.7031 28.9062 23.4375 22.6562 28.125 21.875C27.5656 25 27.3438 28.125 31.25 31.25C33.2031 32.8125 34.375 35.5125 34.375 38.2812C34.375 43.75 30.1781 46.875 25 46.875Z" fill="#CCFF00"/>
</svg>
