<svg width="65" height="50" viewBox="0 0 65 50" fill="none" xmlns="http://www.w3.org/2000/svg">
<path fill-rule="evenodd" clip-rule="evenodd" d="M3.57018 7.14911H32.7385C33.4761 5.05865 34.844 3.24845 36.6536 1.96803C38.4632 0.687601 40.6254 0 42.8421 0C45.0589 0 47.2211 0.687601 49.0307 1.96803C50.8403 3.24845 52.2081 5.05865 52.9457 7.14911H60.693C61.6399 7.14911 62.548 7.52525 63.2175 8.19479C63.8871 8.86433 64.2632 9.77241 64.2632 10.7193C64.2632 11.6662 63.8871 12.5742 63.2175 13.2438C62.548 13.9133 61.6399 14.2895 60.693 14.2895H52.9457C52.2081 16.3799 50.8403 18.1901 49.0307 19.4705C47.2211 20.751 45.0589 21.4386 42.8421 21.4386C40.6254 21.4386 38.4632 20.751 36.6536 19.4705C34.844 18.1901 33.4761 16.3799 32.7385 14.2895H3.57018C2.62331 14.2895 1.71522 13.9133 1.04568 13.2438C0.376143 12.5742 0 11.6662 0 10.7193C0 9.77241 0.376143 8.86433 1.04568 8.19479C1.71522 7.52525 2.62331 7.14911 3.57018 7.14911ZM3.57018 35.7105H11.3175C12.0551 33.6201 13.4229 31.8099 15.2325 30.5294C17.0421 29.249 19.2043 28.5614 21.4211 28.5614C23.6378 28.5614 25.8 29.249 27.6096 30.5294C29.4192 31.8099 30.7871 33.6201 31.5247 35.7105H60.693C61.6399 35.7105 62.548 36.0867 63.2175 36.7562C63.8871 37.4258 64.2632 38.3338 64.2632 39.2807C64.2632 40.2276 63.8871 41.1357 63.2175 41.8052C62.548 42.4748 61.6399 42.8509 60.693 42.8509H31.5247C30.7871 44.9413 29.4192 46.7515 27.6096 48.032C25.8 49.3124 23.6378 50 21.4211 50C19.2043 50 17.0421 49.3124 15.2325 48.032C13.4229 46.7515 12.0551 44.9413 11.3175 42.8509H3.57018C2.62331 42.8509 1.71522 42.4748 1.04568 41.8052C0.376143 41.1357 0 40.2276 0 39.2807C0 38.3338 0.376143 37.4258 1.04568 36.7562C1.71522 36.0867 2.62331 35.7105 3.57018 35.7105Z" fill="#9DA5A4"/>
</svg>
