<svg width="62" height="50" viewBox="0 0 62 50" fill="none" xmlns="http://www.w3.org/2000/svg">
<path d="M54.1483 7.4559C55.2233 8.53087 55.2233 10.2398 54.1483 11.3148L22.8914 42.5717C22.6391 42.827 22.3387 43.0297 22.0075 43.1681C21.6763 43.3065 21.3209 43.3777 20.962 43.3777C20.603 43.3777 20.2476 43.3065 19.9164 43.1681C19.5852 43.0297 19.2848 42.827 19.0325 42.5717L7.4559 30.995C7.20055 30.7428 6.99782 30.4423 6.85945 30.1111C6.72109 29.7799 6.64984 29.4245 6.64984 29.0656C6.64984 28.7067 6.72109 28.3513 6.85945 28.0201C6.99782 27.6889 7.20055 27.3884 7.4559 27.1362C7.70817 26.8808 8.00861 26.6781 8.33982 26.5397C8.67102 26.4014 9.02639 26.3301 9.38534 26.3301C9.74428 26.3301 10.0997 26.4014 10.4309 26.5397C10.7621 26.6781 11.0625 26.8808 11.3148 27.1362L20.962 36.7834L50.2894 7.4559C50.5417 7.20055 50.8421 6.99782 51.1733 6.85945C51.5045 6.72109 51.8599 6.64984 52.2189 6.64984C52.5778 6.64984 52.9332 6.72109 53.2644 6.85945C53.5956 6.99782 53.896 7.20055 54.1483 7.4559ZM48.3324 1.61246L20.962 28.9829L13.2718 21.2927C11.1218 19.1428 7.62128 19.1428 5.47133 21.2927L1.61246 25.1516C-0.537486 27.3015 -0.537486 30.8021 1.61246 32.952L17.048 48.3875C19.1979 50.5375 22.6985 50.5375 24.8484 48.3875L59.9917 13.2718C62.1417 11.1218 62.1417 7.62128 59.9917 5.47133L56.1329 1.61246C53.9554 -0.537486 50.4824 -0.537486 48.3324 1.61246Z" fill="#F6F6F6"/>
</svg>
